<?xml version="1.0" standalone="no"?>
<!DOCTYPE svg PUBLIC "-//W3C//DTD SVG 20010904//EN"
 "http://www.w3.org/TR/2001/REC-SVG-20010904/DTD/svg10.dtd">
<svg version="1.0" xmlns="http://www.w3.org/2000/svg"
 width="700.000000pt" height="700.000000pt" viewBox="0 0 700.000000 700.000000"
 preserveAspectRatio="xMidYMid meet">
<metadata>
Created by potrace 1.11, written by Peter Selinger 2001-2013
</metadata>
<g transform="translate(0.000000,700.000000) scale(0.100000,-0.100000)"
fill="#000000" stroke="none">
<path d="M3400 6114 c-213 -40 -362 -165 -450 -379 -13 -30 -18 -54 -26 -110
-24 -177 29 -348 149 -476 63 -68 130 -114 216 -149 l65 -27 1 -221 c0 -189
-2 -223 -15 -227 -8 -2 -296 -4 -640 -4 -344 1 -645 -2 -670 -6 -214 -31 -375
-109 -516 -249 -167 -167 -254 -375 -258 -617 l-1 -109 -55 -10 c-65 -13 -73
-16 -165 -60 -193 -92 -352 -290 -411 -513 -25 -92 -27 -255 -5 -347 73 -299
296 -542 557 -606 38 -9 71 -18 73 -20 2 -2 5 -23 7 -46 21 -281 149 -512 369
-670 73 -52 203 -114 250 -119 6 -1 17 -5 25 -9 8 -4 33 -12 55 -16 52 -11
2906 -12 2965 -1 180 34 375 147 493 287 71 83 78 95 123 185 59 120 88 236
93 376 1 11 20 19 65 28 106 21 240 98 341 196 115 111 213 295 240 450 64
361 -176 760 -520 863 -39 12 -82 24 -97 27 -28 5 -28 7 -29 83 -1 201 -45
355 -145 507 -146 223 -366 357 -639 391 -16 2 -292 4 -612 5 -533 1 -583 3
-584 18 -3 50 -4 418 -1 428 2 7 26 19 52 28 93 31 205 115 271 205 142 191
147 467 14 664 -49 72 -74 98 -144 149 -125 92 -288 130 -441 101z"/>
</g>
</svg>
