<svg width="29" height="22" viewBox="0 0 29 22" fill="none" xmlns="http://www.w3.org/2000/svg">
<path d="M6.84775 10.3359C7.19501 6.17639 10.9291 2.89798 15.3163 2.96422C17.0397 2.98667 18.6959 3.53975 20.0379 4.54096L21.9917 2.67261C20.1608 1.21957 17.8527 0.41167 15.4431 0.380409C9.56596 0.290104 4.56551 4.70677 4.14584 10.2955L0.897125 10.2451L5.50698 15.4878L11.154 10.4015L6.84775 10.3359ZM24.3642 5.94618L18.7172 11.0325L23.0225 11.099C22.6733 15.2601 18.9392 18.5386 14.5539 18.4706C12.8305 18.4485 11.1742 17.8954 9.83236 16.8938L7.87952 18.7613C9.71071 20.2141 12.0185 21.0225 14.4281 21.0553C20.3062 21.143 25.3067 16.7263 25.7244 11.1393L28.9751 11.188L24.3642 5.94618Z" fill="#ACA2FF"/>
</svg>
