<svg xmlns="http://www.w3.org/2000/svg" xmlns:xlink="http://www.w3.org/1999/xlink" version="1.1" width="24" height="24" enable-background="new 0 0 24 24" xml:space="preserve"><rect id="backgroundrect" width="100%" height="100%" x="0" y="0" fill="none" stroke="none"/>


<g class="currentLayer" style=""><title>Layer 1</title><g id="Bounding_Boxes">
	<path fill="none" d="M0,0h24v24H0V0z" id="svg_1"/>
	<path fill="none" d="M0,0h24v24H0V0z" id="svg_2"/>
</g><g id="Rounded" class="" fill="#efd50e" fill-opacity="1" stroke="#ffffff" stroke-opacity="1" opacity="1" stroke-width="0">
  <path d="M12,16.942131150960922 l4.15,2.51 c0.7600000000000001,0.46 1.6900000000000002,-0.22000000000000003 1.49,-1.08 l-1.1,-4.72 l3.67,-3.18 c0.6700000000000002,-0.5800000000000001 0.31000000000000005,-1.6800000000000002 -0.5700000000000001,-1.75 l-4.83,-0.41000000000000003 l-1.8900000000000001,-4.46 c-0.3400000000000001,-0.81 -1.5,-0.81 -1.84,0 L9.19,8.302131150960923 L4.36,8.712131150960921 c-0.8800000000000001,0.07 -1.24,1.17 -0.5700000000000001,1.75 l3.67,3.18 l-1.1,4.72 c-0.2,0.8600000000000001 0.7300000000000001,1.54 1.49,1.08 L12,16.942131150960922 z" id="svg_3" fill="#efd50e" fill-opacity="1" stroke="#ffffff" stroke-opacity="1" opacity="1" stroke-width="0"/>
</g></g></svg>