<?xml version="1.0" encoding="UTF-8"?>
<svg width="24px" height="24px" viewBox="0 0 24 24" version="1.1" xmlns="http://www.w3.org/2000/svg" xmlns:xlink="http://www.w3.org/1999/xlink">
    <!-- Generator: Sketch 59.1 (86144) - https://sketch.com -->
    <title>Icons/Bot_color@1x</title>
    <desc>Created with Sketch.</desc>
    <g id="Icons/Bot_color" stroke="none" stroke-width="1" fill="none" fill-rule="evenodd">
        <g id="bot-2" transform="translate(2.000000, 3.000000)">
            <path d="M2.5,14.1988479 C2.57630615,14.1988479 2.61215487,13.2992319 2.60754617,11.5 C2.621251,9.74029982 2.58540228,8.86044973 2.5,8.86044973 C1.21911269,8.86044973 0.0563845446,10.1192881 0.0563845446,11.5 C0.0563845446,12.8807119 1.25392055,14.1988479 2.5,14.1988479 Z" id="Oval" fill="#8263FC"></path>
            <path d="M19.4436155,14.1988479 C19.5199216,14.1988479 19.5557703,13.2992319 19.5511616,11.5 C19.5648665,9.74029982 19.5290177,8.86044973 19.4436155,8.86044973 C18.1627281,8.86044973 17,10.1192881 17,11.5 C17,12.8807119 18.197536,14.1988479 19.4436155,14.1988479 Z" id="Oval" fill="#8263FC" transform="translate(18.277002, 11.529649) scale(-1, 1) translate(-18.277002, -11.529649) "></path>
            <g id="Group" transform="translate(8.000000, 0.000000)">
                <rect id="Rectangle" fill="#1BCBC1" x="1.5" y="3" width="1" height="3"></rect>
                <circle id="Oval" fill="#FFB90B" cx="2" cy="2" r="2"></circle>
            </g>
            <rect id="Rectangle" fill="#64EBE3" x="2.3" y="5.5" width="15" height="11.7" rx="3"></rect>
            <path d="M7.42897354,13.4087859 C8.03921905,14.0843303 8.84143714,14.4263803 9.8,14.4263803 C10.7585709,14.4263803 11.560789,14.0843303 12.1710345,13.4087859 C12.3561417,13.2038714 12.3400847,12.8876964 12.1351702,12.7025892 C11.9302558,12.517482 11.6140807,12.533539 11.4289735,12.7384534 C11.01211,13.1999232 10.4809947,13.4263803 9.8,13.4263803 C9.11901329,13.4263803 8.58789805,13.1999232 8.17103447,12.7384534 C7.98592728,12.533539 7.66975226,12.517482 7.46483779,12.7025892 C7.25992332,12.8876964 7.24386635,13.2038714 7.42897354,13.4087859 Z" id="Path-3" fill="#000000" opacity="0.372628348"></path>
            <path d="M13.5796757,8.6652973 C12.7392432,8.6652973 12.0553514,9.34918919 12.0553514,10.1898378 C12.0553514,11.0302703 12.7392432,11.7141622 13.5796757,11.7141622 C14.4201081,11.7141622 15.104,11.0302703 15.104,10.1898378 C15.104,9.34918919 14.4201081,8.6652973 13.5796757,8.6652973 Z" id="Shape" fill="#FFFFFF"></path>
            <path d="M6.52432432,8.67 C5.68389189,8.67 5,9.35389189 5,10.1945405 C5,11.034973 5.68389189,11.7188649 6.52432432,11.7188649 C7.36497297,11.7188649 8.0486487,11.034973 8.0486487,10.1945405 C8.04886486,9.35389189 7.36497297,8.67 6.52432432,8.67 Z" id="Shape" fill="#FFFFFF"></path>
        </g>
        <circle id="Oval" fill="#000000" cx="8.5" cy="13.2" r="1"></circle>
        <circle id="Oval" fill="#000000" cx="15.6" cy="13.2" r="1"></circle>
    </g>
</svg>