<svg width="24" height="24" viewBox="0 0 24 24" xmlns="http://www.w3.org/2000/svg"><g fill="none" fill-rule="evenodd"><g transform="translate(2 3)"><path d="M2.5 14.199c.076 0 .112-.9.108-2.699.013-1.76-.023-2.64-.108-2.64-1.28 0-2.444 1.26-2.444 2.64 0 1.38 1.198 2.699 2.444 2.699zM17.11 14.199c-.076 0-.112-.9-.107-2.699-.014-1.76.022-2.64.107-2.64 1.281 0 2.444 1.26 2.444 2.64 0 1.38-1.198 2.699-2.444 2.699z" fill="#8263FC"/><g transform="translate(8)"><path fill="#1BCBC1" d="M1.5 3h1v3h-1z"/><circle fill="#FFB90B" cx="2" cy="2" r="2"/></g><rect fill="#64EBE3" x="2.3" y="5.5" width="15" height="11.7" rx="3"/><path d="M7.429 13.409c.61.675 1.412 1.017 2.371 1.017.959 0 1.76-.342 2.371-1.017a.5.5 0 00-.742-.67c-.417.46-.948.687-1.629.687s-1.212-.226-1.629-.688a.5.5 0 00-.742.67z" fill="#000" opacity=".373"/><path d="M13.58 8.665c-.84 0-1.525.684-1.525 1.525 0 .84.684 1.524 1.525 1.524.84 0 1.524-.684 1.524-1.524s-.684-1.525-1.524-1.525zM6.524 8.67C5.684 8.67 5 9.354 5 10.195c0 .84.684 1.524 1.524 1.524.841 0 1.525-.684 1.525-1.524 0-.841-.684-1.525-1.525-1.525z" fill="#FFF"/></g><circle fill="#000" cx="8.5" cy="13.2" r="1"/><circle fill="#000" cx="15.6" cy="13.2" r="1"/></g></svg>