<svg width="108" height="37" viewBox="0 0 108 37" xmlns="http://www.w3.org/2000/svg"><defs><filter x="-8.4%" y="-22.5%" width="116.9%" height="145%" filterUnits="objectBoundingBox" id="a"><feOffset dy="3" in="SourceAlpha" result="shadowOffsetOuter1"/><feGaussianBlur stdDeviation="5.5" in="shadowOffsetOuter1" result="shadowBlurOuter1"/><feColorMatrix values="0 0 0 0 0.962 0 0 0 0 0.946 0 0 0 0 0.994 0 0 0 1 0" in="shadowBlurOuter1" result="shadowMatrixOuter1"/><feMerge><feMergeNode in="shadowMatrixOuter1"/><feMergeNode in="SourceGraphic"/></feMerge></filter></defs><g filter="url(#a)" transform="translate(-6 -5)" fill="#16A69E" fill-rule="nonzero"><path d="M17.819 27.142c1.094.582 2.207.848 3.341.799 1.4-.178 2.373-.754 2.92-1.73a4.956 4.956 0 00.599-3.15c-.138-1.103-.557-2.03-1.257-2.779h-.015l.326-.236c.118-.099.226-.202.325-.31a5.863 5.863 0 001.464-3.357 4.961 4.961 0 00-.126-1.73 2.61 2.61 0 00-.865-1.39c-.877-.67-2.06-.606-3.548.193a1.547 1.547 0 00-.09-.252 1.817 1.817 0 00-.916-.902c-1.045-.483-1.932-.38-2.661.31-.7.71-.858 1.632-.473 2.766l.085.195.107.233.177.414c.158.345.276.69.355 1.035.06.345.05.626-.03.843-.058.197-.265.375-.62.532l-.503.207.384 1.006.503-.193c.621-.256 1.035-.64 1.242-1.153.168-.502.192-.985.074-1.449-.168-.7-.375-1.276-.621-1.73l-.081-.184a4.27 4.27 0 00-.067-.14c-.21-.696-.162-1.21.146-1.54l.076-.072c.325-.345.793-.385 1.404-.119.148.08.252.148.311.207.06.06.099.114.118.163.042.068.052.218.03.453l-.03.242-.695 2.78-2.1 8.383-.502-.34-.606.887.843.561-.281 1.095 1.05.266.207-.814zm3.237-.28c-.926.039-1.917-.227-2.971-.799l2.838-11.325.252-.148c.749-.444 1.338-.675 1.767-.695.428-.02.736.054.924.222.463.374.655 1.089.576 2.144-.118 1.074-.507 1.986-1.168 2.735a2.342 2.342 0 01-.769.562l-.133.059-.236-.074c-.483-.138-1.015-.113-1.597.074v1.02c.542.177 1.05.237 1.523.177l.222-.059c.138.09.26.188.37.296.502.522.817 1.237.945 2.144.119.897-.022 1.7-.42 2.41-.4.71-1.107 1.128-2.123 1.257zm6.233 1.094c.808.02 1.655-.266 2.543-.858l.133.592.902.266 2.66-2.573-.753-.769-1.922 1.863 1.73-6.92.074-.265.162-.68-1.05-.267-.162.68-.074.281-1.597 6.402-.163.119c-.995.729-1.798 1.079-2.41 1.05-.187-.02-.3-.094-.34-.222-.108-.158-.083-.587.074-1.287l1.464-5.914-1.035-.251-1.478 5.9c-.217.798-.227 1.453-.03 1.966.276.561.7.857 1.272.887zm6.764-2.248l.06.178c.255.63.68 1.138 1.27 1.523.592.384 1.37.576 2.337.576l.37-.148 2.498-2.424-.754-.77-2.336 2.263-.133-.015c-.73-.05-1.287-.249-1.67-.599a2.383 2.383 0 01-.74-1.323l-.015-.118.4-.31c.216-.165.437-.33.663-.494l.342-.246a26.79 26.79 0 002.232-1.745c.247-.226.468-.468.665-.724.198-.256.34-.527.43-.813.177-.66-.045-1.227-.666-1.7-.276-.198-.513-.32-.71-.37a2.43 2.43 0 00-.591-.074.131.131 0 01-.06-.015c-.798-.01-1.488.279-2.07.865-.58.587-1.027 1.32-1.337 2.203a7.907 7.907 0 00-.466 2.64l.015.384-.932.901.74.77.458-.415zm3.785-4.45a24.928 24.928 0 01-2.1 1.641c-.187.138-.38.276-.576.414l-.296.222.044-.384c.099-.651.276-1.26.533-1.826.256-.567.569-1.026.939-1.375.328-.311.682-.476 1.061-.495h.217c.158 0 .279.012.363.036.067.02.151.066.253.14l.08.06c.147.108.236.207.265.296a.355.355 0 01.017.182l-.017.054c-.059.256-.32.601-.783 1.035zM40.89 28l1.848-7.333.178-.133c.995-.73 1.799-1.085 2.41-1.065.156.016.264.07.324.162l.03.06c.109.167.084.601-.073 1.3l-1.36 5.442v.251l.221 1.006.902.266 2.661-2.573-.754-.769-1.922 1.863 1.287-5.219c.226-.798.236-1.459.03-1.981-.267-.552-.686-.843-1.258-.872-.72-.03-1.478.197-2.276.68l.118-.518-1.035-.266-2.38 9.433 1.05.266zm8.923-.044c.73.04 1.45-.227 2.159-.799l.118.533.902.266 2.661-2.573-.754-.769-1.922 1.863 1.73-6.92.06-.265.177-.68-1.05-.267-.163.68-.074.281-.044.178c-.296-.414-.616-.72-.961-.917-.444-.236-.882-.28-1.316-.133-.728.31-1.313.875-1.755 1.697l-.108.21c-.483.917-.857 1.92-1.124 3.01-.266 1.088-.379 2.012-.34 2.771.148 1.134.75 1.745 1.804 1.834zm1.967-2.115c-.681.709-1.28 1.056-1.798 1.044l-.11-.009c-.453-.01-.714-.28-.783-.813-.03-.65.076-1.47.318-2.462.241-.99.579-1.904 1.012-2.742.464-.828.878-1.296 1.242-1.405.138-.049.296-.03.473.06.188.088.424.344.71.768l.4.636-1.124 4.51-.34.413zm6.025.444l2.705-.296-.03.06c-.388.523-.818.807-1.289.851l-.13.006c-.02 0-.167-.01-.443-.03-.266-.01-.537-.207-.813-.591zm.798-4.436c-.177-.177-.266-.335-.266-.473.06-.463.29-.865.695-1.205a3.24 3.24 0 011.42-.687c.167-.04.32-.06.458-.06l.162.015-2.469 2.41zm3.341 2.898c-.197-.788-.906-1.488-2.129-2.1l-.31-.177 1.966-1.914c.528-.518.927-.914 1.198-1.19l-.532-.695a2.403 2.403 0 00-1.242-.34c-.887 0-1.75.34-2.588 1.02-.6.493-.95 1.133-1.05 1.922 0 .562.188 1.005.562 1.33l-2.912 2.84.843.68a202.94 202.94 0 002.957-2.869l.813.473c.739.404 1.183.784 1.33 1.139l-3.888.428-.503.518.03.118c.138.63.446 1.131.924 1.5a2.6 2.6 0 001.634.555c.542 0 1.054-.165 1.537-.495.483-.33.873-.85 1.168-1.56l.03-.089.724-.059.297-.039c.132-.015.237-.024.317-.027l.168-.002c.046.001.08.004.105.01.01.009.015.024.015.043l-.007.097c-.005.039-.012.086-.022.14l-.119.532 1.065.222.103-.532a1.691 1.691 0 000-.887 1.007 1.007 0 00-.502-.577 1.956 1.956 0 00-.754-.126 5.594 5.594 0 00-.784.067l-.444.044zm9.478 3.209l2.661-2.573-.754-.784-1.922 1.863 2.706-10.793h-.015l.296-1.138a2.42 2.42 0 00-.074-1.33 1.817 1.817 0 00-.917-.903c-1.045-.483-1.937-.38-2.676.31-.69.71-.843 1.632-.458 2.766.033.085.072.18.118.282l.074.161c.06.128.118.261.178.4.157.344.27.69.34 1.034.059.296.06.545.003.746l-.033.097c-.05.197-.256.375-.621.532l-.503.207.4 1.006.502-.193c.621-.256 1.03-.64 1.227-1.153.178-.502.207-.985.09-1.449a8.697 8.697 0 00-.522-1.528l-.1-.202a3.648 3.648 0 01-.148-.325c-.226-.749-.157-1.286.207-1.611.335-.345.809-.385 1.42-.119.138.08.239.148.303.207.064.06.106.114.125.163.043.068.052.218.03.453l-.03.242-3.03 12.109v.251l.221 1.006.902.266zm7.607 0l2.662-2.573-.755-.769-1.922 1.863 3.549-14.208-1.05-.266-1.863 7.48c-.296-.413-.616-.719-.96-.916-.435-.236-.873-.28-1.317-.133-.728.31-1.313.875-1.755 1.697l-.108.21c-.483.917-.855 1.92-1.116 3.01-.261 1.088-.372 2.012-.333 2.771.148 1.134.75 1.745 1.804 1.834.72.04 1.434-.227 2.144-.799l.118.533.902.266zm-1.212-2.115c-.68.709-1.276 1.056-1.785 1.044l-.108-.009c-.463-.01-.724-.28-.783-.813-.04-.65.061-1.47.303-2.462.241-.99.579-1.904 1.013-2.742.463-.828.882-1.296 1.256-1.405.138-.049.291-.03.459.06.197.088.433.344.71.768l.413.636-1.138 4.51-.34.413zm4.413-.133l.06.178c.256.63.68 1.138 1.271 1.523.591.384 1.37.576 2.336.576l.37-.148 2.498-2.424-.754-.77-2.336 2.263-.133-.015c-.73-.05-1.286-.249-1.67-.599a2.383 2.383 0 01-.74-1.323l-.015-.118.4-.31c.217-.165.438-.33.663-.494l.342-.246a26.79 26.79 0 002.233-1.745c.246-.226.468-.468.665-.724.197-.256.34-.527.429-.813.177-.66-.045-1.227-.666-1.7-.276-.198-.512-.32-.71-.37a2.43 2.43 0 00-.59-.074.131.131 0 01-.06-.015c-.798-.01-1.488.279-2.07.865-.581.587-1.027 1.32-1.338 2.203a7.907 7.907 0 00-.466 2.64l.015.384-.931.901.74.77.457-.415zm3.785-4.45c-.507.448-1.093.914-1.76 1.398l-.34.243c-.186.138-.379.276-.576.414l-.295.222.044-.384c.098-.651.276-1.26.532-1.826.256-.567.57-1.026.939-1.375.329-.311.682-.476 1.062-.495h.217c.158 0 .278.012.362.036.067.02.152.066.253.14l.08.06c.148.108.236.207.266.296a.355.355 0 01.017.182l-.017.054c-.06.256-.32.601-.784 1.035zm4.503 6.698c.729.04 1.449-.227 2.158-.799l.118.533.902.266 2.662-2.573-.754-.769-1.922 1.863 1.73-6.92.059-.265.177-.68-1.05-.267-.162.68-.074.281-.045.178c-.295-.414-.616-.72-.96-.917-.444-.236-.883-.28-1.317-.133-.727.31-1.313.875-1.755 1.697l-.107.21c-.483.917-.858 1.92-1.124 3.01-.266 1.088-.38 2.012-.34 2.771.148 1.134.749 1.745 1.804 1.834zm1.966-2.115c-.68.709-1.28 1.056-1.798 1.044l-.11-.009c-.453-.01-.714-.28-.783-.813-.03-.65.077-1.47.318-2.462.242-.99.58-1.904 1.013-2.742.463-.828.877-1.296 1.242-1.405.138-.049.295-.03.473.06.187.088.424.344.71.768l.399.636-1.124 4.51-.34.413zm7.267 2.144c.542 0 1.055-.165 1.538-.495.483-.33.872-.85 1.168-1.56l.03-.089 1.67-.177-.118-1.08-1.39.163c-.197-.788-.907-1.488-2.13-2.1l-.31-.177 2.268-2.21c.38-.376.68-.674.896-.894l-.532-.695a2.403 2.403 0 00-1.242-.34c-.887 0-1.75.34-2.587 1.02-.601.493-.951 1.133-1.05 1.922 0 .562.187 1.005.562 1.33l-2.913 2.84.843.68c.996-.947 1.981-1.903 2.957-2.869l.813.473c.74.404 1.183.784 1.33 1.139l-3.888.428-.502.518.03.118c.137.63.445 1.131.923 1.5a2.6 2.6 0 001.634.555zm-1.24-1.7l2.704-.296-.03.06c-.388.523-.818.807-1.29.851l-.13.006c-.019 0-.17-.007-.45-.022-.233-.013-.47-.172-.713-.478l-.091-.121zm.797-4.436c-.178-.177-.267-.335-.267-.473.06-.463.291-.865.695-1.205a3.24 3.24 0 011.42-.687c.167-.04.32-.06.458-.06l.163.015-2.47 2.41z"/></g></svg>