<svg width="48" height="38" xmlns="http://www.w3.org/2000/svg"><path d="M1.815 15.142c1.092.582 2.204.848 3.336.799 1.397-.178 2.368-.754 2.915-1.73a4.963 4.963 0 00.597-3.15c-.137-1.103-.556-2.03-1.254-2.779h-.015l.325-.236a3.25 3.25 0 00.324-.31 5.869 5.869 0 001.461-3.357 4.97 4.97 0 00-.125-1.73 2.61 2.61 0 00-.863-1.39C7.64.59 6.459.653 4.974 1.452a1.549 1.549 0 00-.089-.252A1.815 1.815 0 003.97.298c-1.043-.483-1.928-.38-2.656.31-.7.71-.856 1.632-.473 2.766l.085.195a14 14 0 00.107.233l.177.414c.158.345.276.69.354 1.035.06.345.05.626-.03.843-.058.197-.265.375-.619.532l-.502.207.384 1.006.502-.193c.62-.256 1.033-.64 1.24-1.153.167-.502.191-.985.073-1.449-.167-.7-.374-1.276-.62-1.73l-.08-.184a4.273 4.273 0 00-.067-.14c-.21-.696-.162-1.21.146-1.54l.075-.072c.325-.345.792-.385 1.402-.119.148.08.251.148.31.207.06.06.099.114.118.163.042.068.052.218.03.453l-.03.242-.693 2.78-2.096 8.383-.502-.34-.605.887.841.561-.28 1.095 1.048.266.206-.814zm3.232-.28c-.924.039-1.913-.227-2.966-.799L4.915 2.738l.25-.148c.748-.444 1.336-.675 1.764-.695.428-.02.736.054.923.222.462.374.654 1.089.575 2.144-.118 1.074-.507 1.986-1.166 2.735a2.338 2.338 0 01-.767.562l-.133.059-.236-.074c-.482-.138-1.014-.113-1.594.074v1.02c.541.177 1.048.237 1.52.177l.221-.059c.138.09.261.188.37.296.501.522.816 1.237.944 2.144.118.897-.022 1.7-.42 2.41-.4.71-1.105 1.128-2.119 1.257zm6.221 1.094c.807.02 1.653-.266 2.539-.858l.133.592.9.266 2.656-2.573-.752-.769-1.919 1.863 1.727-6.92.074-.265.162-.68-1.048-.267-.162.68-.074.281-1.594 6.402-.162.119c-.994.729-1.796 1.079-2.406 1.05-.187-.02-.3-.094-.34-.222-.108-.158-.083-.587.074-1.287l1.462-5.914-1.034-.251-1.475 5.9c-.217.798-.227 1.453-.03 1.966.276.561.699.857 1.27.887zm6.753-2.248l.059.178c.255.63.678 1.138 1.269 1.523.59.384 1.367.576 2.332.576l.369-.148 2.494-2.424-.753-.77-2.332 2.263-.133-.015c-.728-.05-1.284-.249-1.667-.599a2.384 2.384 0 01-.738-1.323l-.015-.118.399-.31c.216-.165.437-.33.662-.494l.341-.246a26.748 26.748 0 002.229-1.745c.246-.226.467-.468.664-.724.197-.256.34-.527.428-.813.177-.66-.044-1.227-.664-1.7-.276-.198-.512-.32-.709-.37a2.422 2.422 0 00-.59-.074.13.13 0 01-.06-.015c-.796-.01-1.485.279-2.065.865-.58.587-1.026 1.32-1.336 2.203a7.92 7.92 0 00-.465 2.64l.015.384-.93.901.738.77.458-.415zm3.778-4.45a24.89 24.89 0 01-2.096 1.641c-.187.138-.379.276-.576.414l-.295.222.045-.384c.098-.651.275-1.26.53-1.826.257-.567.57-1.026.938-1.375.328-.311.681-.476 1.06-.495h.217c.157 0 .278.012.361.036.067.02.151.066.253.14l.08.06c.147.108.235.207.265.296a.356.356 0 01.017.182l-.017.054c-.06.256-.32.601-.782 1.035zM24.847 16l1.844-7.333.178-.133c.993-.73 1.795-1.085 2.405-1.065.156.016.264.07.324.162l.03.06c.109.167.084.601-.073 1.3l-1.358 5.442v.251l.221 1.006.9.266 2.657-2.573-.753-.769-1.918 1.863 1.284-5.219c.226-.798.236-1.459.03-1.981-.266-.552-.685-.843-1.255-.872-.719-.03-1.476.197-2.273.68l.118-.518-1.033-.266-2.376 9.433 1.048.266zm8.907-.044c.728.04 1.446-.227 2.154-.799l.118.533.9.266 2.657-2.573-.752-.769-1.92 1.863 1.728-6.92.059-.265.177-.68-1.048-.267-.162.68-.074.281-.044.178c-.296-.414-.615-.72-.96-.917-.443-.236-.88-.28-1.313-.133-.727.31-1.31.875-1.752 1.697l-.108.21c-.482.917-.856 1.92-1.122 3.01-.265 1.088-.378 2.012-.339 2.771.148 1.134.748 1.745 1.8 1.834zm1.962-2.115c-.68.709-1.277 1.056-1.794 1.044l-.11-.009c-.452-.01-.713-.28-.782-.813-.03-.65.077-1.47.318-2.462a12.27 12.27 0 011.01-2.742c.463-.828.876-1.296 1.24-1.405.138-.049.296-.03.473.06.187.088.423.344.708.768l.399.636-1.122 4.51-.34.413zm6.015.444l2.7-.296-.029.06c-.388.523-.817.807-1.287.851l-.13.006c-.02 0-.167-.01-.443-.03-.265-.01-.536-.207-.811-.591zm.797-4.436c-.177-.177-.266-.335-.266-.473.06-.463.29-.865.694-1.205.403-.34.875-.569 1.417-.687.167-.04.32-.06.457-.06l.162.015-2.464 2.41zm3.335 2.898c-.197-.788-.905-1.488-2.125-2.1l-.31-.177 1.963-1.914c.526-.518.925-.914 1.195-1.19l-.531-.695a2.395 2.395 0 00-1.24-.34c-.885 0-1.746.34-2.582 1.02-.6.493-.95 1.133-1.048 1.922 0 .562.187 1.005.56 1.33l-2.907 2.84.841.68c.994-.947 1.978-1.903 2.952-2.869l.812.473c.738.404 1.18.784 1.328 1.139l-3.881.428-.502.518.03.118c.137.63.444 1.131.922 1.5.477.37 1.02.555 1.63.555a2.67 2.67 0 001.535-.495c.482-.33.871-.85 1.166-1.56l.03-.089.723-.059.296-.039c.131-.015.237-.024.316-.027l.168-.002a.66.66 0 01.105.01c.01.009.015.024.015.043l-.007.097c-.005.039-.012.086-.022.14l-.118.532 1.062.222.104-.532a1.694 1.694 0 000-.887 1.006 1.006 0 00-.502-.577 1.949 1.949 0 00-.753-.126 5.574 5.574 0 00-.782.067l-.443.044zM1.593 37.956l2.657-2.573-.752-.784-1.919 1.863L4.28 25.67h-.015l.295-1.138a2.424 2.424 0 00-.073-1.33 1.815 1.815 0 00-.915-.903c-1.043-.483-1.934-.38-2.672.31-.688.71-.841 1.632-.457 2.766.033.085.072.18.118.282l.074.161c.059.128.118.261.177.4.157.344.27.69.34 1.034.058.296.06.545.003.746l-.033.097c-.05.197-.256.375-.62.532L0 28.833l.398 1.006.502-.193c.62-.256 1.028-.64 1.225-1.153.177-.502.207-.985.089-1.449a8.707 8.707 0 00-.52-1.528l-.1-.202a3.65 3.65 0 01-.148-.325c-.226-.749-.157-1.286.207-1.611.334-.345.807-.385 1.417-.119.138.08.238.148.302.207.064.06.106.114.126.163.042.068.052.218.029.453l-.03.242L.473 36.433v.251l.222 1.006.9.266zm7.594 0l2.657-2.573-.753-.769-1.918 1.863 3.542-14.208-1.048-.266-1.86 7.48c-.295-.413-.615-.719-.96-.916-.432-.236-.87-.28-1.313-.133-.726.31-1.31.875-1.752 1.697l-.107.21c-.482.917-.854 1.92-1.114 3.01-.261 1.088-.372 2.012-.332 2.771.147 1.134.747 1.745 1.8 1.834.718.04 1.432-.227 2.14-.799l.118.533.9.266zm-1.21-2.115c-.68.709-1.273 1.056-1.781 1.044l-.108-.009c-.462-.01-.723-.28-.782-.813-.04-.65.061-1.47.302-2.462A12.27 12.27 0 016.62 30.86c.463-.828.881-1.296 1.255-1.405.138-.049.29-.03.457.06.197.088.433.344.709.768l.413.636-1.136 4.51-.34.413zm4.406-.133l.059.178c.256.63.679 1.138 1.27 1.523.59.384 1.367.576 2.33.576l.37-.148 2.494-2.424-.753-.77-2.331 2.263-.133-.015c-.728-.05-1.284-.249-1.668-.599a2.384 2.384 0 01-.738-1.323l-.015-.118.399-.31c.216-.165.437-.33.662-.494l.341-.246a26.748 26.748 0 002.229-1.745c.246-.226.467-.468.664-.724.197-.256.34-.527.428-.813.177-.66-.044-1.227-.664-1.7-.276-.198-.512-.32-.708-.37a2.422 2.422 0 00-.59-.074.13.13 0 01-.06-.015c-.797-.01-1.486.279-2.066.865-.58.587-1.026 1.32-1.336 2.203a7.92 7.92 0 00-.465 2.64l.015.384-.93.901.738.77.458-.415zm3.778-4.45c-.506.448-1.092.914-1.757 1.398l-.339.243c-.187.138-.379.276-.575.414l-.295.222.044-.384c.098-.651.275-1.26.531-1.826.256-.567.568-1.026.937-1.375.328-.311.681-.476 1.06-.495h.217c.157 0 .278.012.361.036.067.02.152.066.253.14l.08.06c.147.108.236.207.265.296a.356.356 0 01.017.182l-.017.054c-.059.256-.32.601-.782 1.035zm4.494 6.698c.728.04 1.447-.227 2.155-.799l.118.533.9.266 2.657-2.573-.753-.769-1.918 1.863 1.726-6.92.06-.265.176-.68-1.047-.267-.163.68-.074.281-.044.178c-.295-.414-.615-.72-.96-.917-.442-.236-.88-.28-1.313-.133-.726.31-1.31.875-1.752 1.697l-.107.21c-.482.917-.856 1.92-1.122 3.01-.266 1.088-.379 2.012-.34 2.771.148 1.134.748 1.745 1.801 1.834zm1.963-2.115c-.68.709-1.278 1.056-1.794 1.044l-.11-.009c-.452-.01-.713-.28-.782-.813-.03-.65.076-1.47.317-2.462a12.27 12.27 0 011.011-2.742c.463-.828.876-1.296 1.24-1.405.138-.049.295-.03.472.06.187.088.423.344.709.768l.398.636-1.121 4.51-.34.413zm7.254 2.144a2.67 2.67 0 001.535-.495c.482-.33.87-.85 1.166-1.56l.03-.089 1.667-.177-.118-1.08-1.387.163c-.197-.788-.905-1.488-2.125-2.1l-.31-.177 2.263-2.21c.38-.376.678-.674.895-.894l-.531-.695a2.395 2.395 0 00-1.24-.34c-.886 0-1.747.34-2.583 1.02-.6.493-.95 1.133-1.048 1.922 0 .562.187 1.005.561 1.33l-2.907 2.84.84.68c.995-.947 1.979-1.903 2.953-2.869l.811.473c.738.404 1.181.784 1.329 1.139l-3.882.428-.502.518.03.118c.138.63.445 1.131.922 1.5.477.37 1.021.555 1.631.555zm-1.238-1.7l2.7-.296-.03.06c-.388.523-.817.807-1.288.851l-.13.006c-.019 0-.169-.007-.45-.022-.231-.013-.469-.172-.71-.478l-.092-.121zm.795-4.436c-.177-.177-.265-.335-.265-.473.059-.463.29-.865.693-1.205.404-.34.876-.569 1.417-.687.167-.04.32-.06.458-.06l.162.015-2.465 2.41z" fill="#fff" fill-rule="evenodd"/></svg>
