<?xml version="1.0" encoding="UTF-8"?>
<svg width="108px" height="37px" viewBox="0 0 108 37" version="1.1" xmlns="http://www.w3.org/2000/svg" xmlns:xlink="http://www.w3.org/1999/xlink">
    <!-- Generator: sketchtool 59.1 (101010) - https://sketch.com -->
    <title>26EA6416-5351-4D82-8F76-5BD91DE5E0B1</title>
    <desc>Created with sketchtool.</desc>
    <defs>
        <filter x="-8.4%" y="-22.5%" width="116.9%" height="145.0%" filterUnits="objectBoundingBox" id="filter-1">
            <feOffset dx="0" dy="3" in="SourceAlpha" result="shadowOffsetOuter1"></feOffset>
            <feGaussianBlur stdDeviation="5.5" in="shadowOffsetOuter1" result="shadowBlurOuter1"></feGaussianBlur>
            <feColorMatrix values="0 0 0 0 0.962   0 0 0 0 0.946   0 0 0 0 0.994  0 0 0 1 0" type="matrix" in="shadowBlurOuter1" result="shadowMatrixOuter1"></feColorMatrix>
            <feMerge>
                <feMergeNode in="shadowMatrixOuter1"></feMergeNode>
                <feMergeNode in="SourceGraphic"></feMergeNode>
            </feMerge>
        </filter>
    </defs>
    <g id="Mobile" stroke="none" stroke-width="1" fill="none" fill-rule="evenodd">
        <g id="m-Result" transform="translate(-6.000000, -5.000000)" fill="#16A69E" fill-rule="nonzero">
            <g id="Header" filter="url(#filter-1)">
                <g id="Filtro$">
                    <g id="Logo/BuenasIdeas" transform="translate(16.000000, 12.000000)">
                        <path d="M1.81855714,15.142469 C2.9126539,15.7240159 4.0264474,15.9901436 5.15997107,15.9408599 C6.55962638,15.7634388 7.53296362,15.1868289 8.080012,14.2110129 C8.62706038,13.2351969 8.82665612,12.1854711 8.67880521,11.0618042 C8.54081102,9.95785071 8.12190638,9.03133222 7.42207873,8.28222092 L7.40729371,8.28222092 L7.73256409,8.04566064 C7.85084482,7.94709337 7.9592672,7.84359928 8.05783448,7.73517528 C8.90551305,6.76921598 9.39341374,5.65049419 9.5215512,4.37897633 C9.58069156,3.78757268 9.5388011,3.21096277 9.39587855,2.6491293 C9.252956,2.08729583 8.96465105,1.62403658 8.53095503,1.25933766 C7.65370628,0.58908019 6.47091672,0.653147958 4.98255086,1.45154289 C4.9628374,1.37268907 4.93326767,1.28890814 4.89384076,1.20019759 C4.70656293,0.796071764 4.40100896,0.495446084 3.97716968,0.298311533 C2.93235656,-0.184668117 2.04526439,-0.0811740299 1.31586655,0.608796898 C0.616038892,1.31848128 0.458333617,2.24007148 0.842745991,3.37359515 L0.927759786,3.56949654 C0.95979391,3.64095728 0.995524307,3.71857847 1.03495122,3.80236065 L1.21237143,4.21634114 C1.37007907,4.5613266 1.48835802,4.90630689 1.56721184,5.25129236 C1.62635221,5.59627782 1.61649563,5.87719034 1.53764181,6.09403835 C1.47850144,6.2911729 1.27151327,6.46859133 0.916671078,6.62629898 L0.413980487,6.83328922 L0.798390939,7.8386704 L1.30108153,7.64646518 C1.92205537,7.39019026 2.33603171,7.00578365 2.54302299,6.49323382 C2.71058736,5.99054071 2.73522881,5.50756831 2.61694808,5.04430211 C2.44938371,4.34447446 2.24239554,3.76786455 1.99597735,3.31445508 L1.91465971,3.12964225 C1.89001808,3.07543066 1.86784063,3.02861161 1.84812717,2.9891847 C1.63761564,2.29358135 1.68631999,1.78071159 1.99424201,1.4505625 L2.06990243,1.3776178 C2.39517444,1.03263234 2.86336198,0.99320602 3.47447909,1.25933766 C3.62233,1.33819148 3.72582409,1.40718754 3.78496445,1.46632791 C3.84410482,1.52546827 3.88353114,1.57967946 3.90324459,1.6289631 C3.94548771,1.69655209 3.95514322,1.84741825 3.93221123,2.08156521 L3.90324459,2.32385892 L3.20834877,5.10344218 L1.1088763,13.486547 L0.606185713,13.1464916 L-3.55271368e-14,14.0335927 L0.842745991,14.5954233 L0.561830661,15.6895146 L1.6115669,15.9556449 L1.81855714,15.142469 Z M5.05647595,14.8615537 C4.12994356,14.9009806 3.1393573,14.6348529 2.08468745,14.0631627 L4.92341079,2.7378394 L5.17475609,2.58998923 C5.92386738,2.14643649 6.51279802,1.91480687 6.94156566,1.89509341 C7.37033331,1.87537996 7.67835143,1.9493043 7.86562925,2.11686867 C8.32889545,2.49142432 8.52109875,3.20602635 8.44224493,4.26069619 C8.3239642,5.3350795 7.9346293,6.24681312 7.27422856,6.99592441 C7.04752382,7.2423426 6.79125275,7.42961761 6.50540765,7.55775507 L6.37234249,7.61689514 L6.13578222,7.54297005 C5.65280257,7.40497587 5.12054726,7.42961732 4.53900034,7.61689514 L4.53900034,8.63706134 C5.08112035,8.81448244 5.58873421,8.87362191 6.06185713,8.81448155 L6.28363239,8.75534148 C6.42162658,8.84405203 6.54483382,8.94261782 6.65325783,9.05104183 C7.15595093,9.57344839 7.47136148,10.2880504 7.59949894,11.1948693 C7.71777967,12.0918316 7.57732341,12.8951428 7.17812594,13.6048272 C6.77892848,14.3145116 6.07171888,14.7334162 5.05647595,14.8615537 Z M11.288572,15.9556449 C12.0968236,15.9753584 12.9444895,15.6895176 13.831595,15.0981139 L13.9646601,15.6895146 L14.8665462,15.9556449 L17.5278493,13.3830519 L16.7738134,12.614231 L14.8517612,14.4771432 L16.5816082,7.55775507 L16.6555333,7.29162476 L16.8181685,6.61151396 L15.7684323,6.34538365 L15.6057971,7.02549444 L15.531872,7.30640978 L13.9350901,13.7083223 L13.7724549,13.8266024 C12.7769254,14.5560003 11.9736142,14.9059089 11.3624971,14.8763387 C11.1752193,14.8566252 11.0618686,14.7827009 11.0224417,14.6545634 C10.9140177,14.4968558 10.9386591,14.0680946 11.0963668,13.3682669 L12.5600835,7.45425995 L11.5251323,7.20291465 L10.0466305,13.1021366 C9.82978252,13.9005315 9.81992594,14.5559941 10.0170605,15.0685439 C10.2930489,15.6303774 10.7168818,15.9260748 11.288572,15.9556449 Z M18.0529287,13.7083223 L18.1120687,13.8857425 C18.3683436,14.5165731 18.7921766,15.0241869 19.3835802,15.4085993 C19.9749839,15.7930117 20.7536537,15.985215 21.719613,15.985215 L22.0892384,15.8373648 L24.5879063,13.412622 L23.8338705,12.6438011 L21.4978377,14.9059087 L21.3647726,14.8911237 C20.6353747,14.8418401 20.078478,14.6422443 19.6940656,14.2923305 C19.3096532,13.9424167 19.0632387,13.5013347 18.9548147,12.9690714 L18.9400297,12.8507913 L19.3392252,12.5403059 C19.5560732,12.3760271 19.7772997,12.21175 20.0029078,12.0474723 L20.3446064,11.8010551 C21.1824282,11.2096514 21.9266,10.6281132 22.577144,10.056423 C22.8235622,9.82971828 23.0453352,9.58823207 23.2424698,9.33195716 C23.4396043,9.07568224 23.5825247,8.8046263 23.6712353,8.5187812 C23.8486564,7.85838046 23.6268833,7.29162712 23.0059095,6.8185042 C22.7299211,6.62136965 22.4933632,6.4981624 22.2962287,6.44887877 C22.0990941,6.39959513 21.9019615,6.37495368 21.704828,6.37495368 C21.6851145,6.37495368 21.6654013,6.37002539 21.6456879,6.36016866 C20.847293,6.35031193 20.1573324,6.63861689 19.5757855,7.22509218 C18.9942385,7.81156747 18.5482283,8.54588266 18.2377414,9.42805977 C17.9272545,10.3102369 17.7720133,11.1899366 17.7720133,12.0671854 L17.7867983,12.4515958 L16.8553423,13.3534819 L17.5945931,14.1223028 L18.0529287,13.7083223 Z M21.8378931,9.25803207 C21.2464895,9.78043863 20.5466723,10.3274788 19.7384206,10.899169 C19.5511428,11.0371632 19.3589395,11.1751553 19.161805,11.3131495 L18.8661046,11.5349247 L18.9104597,11.1505143 C19.0090269,10.4999703 19.1864454,9.89132648 19.4427203,9.32456465 C19.6989952,8.75780282 20.0119416,8.29947186 20.3815689,7.94955803 C20.7101265,7.63852352 21.0639904,7.47351655 21.4431691,7.45453366 L21.6604729,7.45425995 C21.8181805,7.45425995 21.9389236,7.46658067 22.0227058,7.49122249 C22.0897316,7.51093595 22.1741041,7.55745906 22.2758251,7.63079286 L22.3553687,7.69082023 C22.5032196,7.79924423 22.5919289,7.89781003 22.621499,7.98652058 C22.6436766,8.05305349 22.6492209,8.11404132 22.6381322,8.16948508 L22.621499,8.22308085 C22.5623587,8.47935577 22.3011593,8.82433606 21.8378931,9.25803207 Z M24.8912104,16 L26.7393376,8.66663138 L26.9167578,8.53356622 C27.9122873,7.80416838 28.7155985,7.44933151 29.3267156,7.46904497 C29.4827805,7.48547285 29.5909295,7.53954762 29.6511646,7.63126947 L29.6815561,7.69082023 C29.7899801,7.8583846 29.7653386,8.2920741 29.607631,8.99190176 L28.2474094,14.4327882 L28.2474094,14.6841335 L28.4691846,15.6895146 L29.3710707,15.9556449 L32.0323738,13.3830519 L31.2783379,12.614231 L29.3562857,14.4771432 L30.6425822,9.25803207 C30.8692869,8.45963714 30.8791435,7.7992463 30.6721522,7.27683974 C30.4060206,6.724863 29.9871159,6.4340939 29.4154257,6.40452371 C28.6958846,6.37495353 27.936928,6.60165486 27.1385331,7.08463451 L27.2568132,6.56715891 L26.221862,6.30102859 L23.8414742,15.7338697 L24.8912104,16 Z M33.8141796,15.9556449 C34.5435775,15.9950719 35.2631078,15.7289442 35.9727922,15.157254 L36.0910723,15.6895146 L36.9929584,15.9556449 L39.6542615,13.3830519 L38.9002256,12.614231 L36.9781733,14.4771432 L38.7080204,7.55775507 L38.7671605,7.29162476 L38.9445807,6.61151396 L37.8948444,6.34538365 L37.7322092,7.02549444 L37.6582841,7.30640978 L37.6139291,7.48382998 C37.3182273,7.06984743 36.9978884,6.76429346 36.652903,6.56715891 C36.2093502,6.33059744 35.7707324,6.28624284 35.3370364,6.43409375 C34.609155,6.74344335 34.0240583,7.3089431 33.5817315,8.13060799 L33.4741242,8.34136099 C32.9911446,9.25803665 32.6165945,10.2609436 32.3504629,11.350112 C32.0843313,12.4392804 31.9709806,13.3633348 32.0104075,14.1223028 C32.1582584,15.2558265 32.7595098,15.8669344 33.8141796,15.9556449 Z M35.7805869,13.8413875 C35.0998156,14.5497576 34.5006225,14.8974985 33.9829921,14.8846184 L33.8733197,14.8763387 C33.4199102,14.866482 33.1587109,14.595426 33.0897138,14.0631627 C33.0601436,13.4126187 33.1661018,12.5920584 33.4075916,11.6014573 C33.6490815,10.6108562 33.9866693,9.69665844 34.4203653,8.8588366 C34.8836315,8.03087149 35.2976079,7.56268395 35.6623068,7.45425995 C35.800301,7.40497631 35.9580063,7.42468947 36.1354274,7.51340002 C36.3227052,7.60211057 36.5592631,7.85838164 36.8451082,8.28222092 L37.2443037,8.91797667 L36.1206423,13.427407 L35.7805869,13.8413875 Z M41.8056927,14.284938 L44.5113509,13.9892376 L44.4817809,14.0483777 C44.0932615,14.5724271 43.6633362,14.8562835 43.191994,14.8999537 L43.0624192,14.9059087 C43.0427058,14.9059087 42.8948571,14.8960521 42.6188687,14.8763387 C42.3527371,14.866482 42.0816811,14.6693504 41.8056927,14.284938 Z M42.6040837,9.84943277 C42.4266626,9.67201167 42.3379534,9.5143064 42.3379534,9.37631221 C42.3970937,8.91304602 42.6287234,8.51139039 43.0328492,8.17133329 C43.436975,7.83127619 43.9100908,7.60211071 44.4522109,7.48382998 C44.6197752,7.44440307 44.7725522,7.42468991 44.9105464,7.42468991 L45.0731816,7.43947493 L42.6040837,9.84943277 Z M45.9454976,12.7472962 C45.7483631,11.958758 45.0386893,11.2589408 43.8164551,10.6478237 L43.5059697,10.4704035 L45.472379,8.55574193 C45.9997099,8.03826762 46.3989035,7.64153822 46.6699635,7.36554984 L46.1377028,6.67065403 C45.7532905,6.44394929 45.3393141,6.33059863 44.8957614,6.33059863 C44.0086559,6.33059863 43.1462052,6.67065063 42.3083833,7.35076483 C41.707123,7.8436012 41.3572144,8.48427888 41.2586471,9.27281709 C41.2586471,9.83465056 41.4459221,10.2781966 41.8204778,10.6034687 L38.9078293,13.442192 L39.7505753,14.1223028 C40.7461048,13.1760569 41.7317628,12.2199687 42.7075788,11.2540094 L43.5207548,11.72713 C44.2600093,12.1312558 44.7035554,12.5107341 44.8514063,12.8655763 L40.9629467,13.2943418 L40.4602562,13.8118174 L40.4898262,13.9300976 C40.6278204,14.5609281 40.9358385,15.0611495 41.4138898,15.4307768 C41.8919411,15.8004041 42.4365171,15.985215 43.0476342,15.985215 C43.5897542,15.985215 44.1022964,15.8201173 44.585276,15.4899169 C45.0682557,15.1597165 45.4575906,14.6397819 45.7532924,13.9300976 L45.7828624,13.8413875 L46.5073283,13.7822474 L46.8042118,13.7432149 C46.9355026,13.7278385 47.041067,13.7186718 47.1209065,13.7157148 L47.2890862,13.7138667 C47.3346732,13.7150987 47.3697875,13.718179 47.3944293,13.7231073 C47.404286,13.732964 47.4092143,13.7477489 47.4092143,13.7674624 L47.4018219,13.8635649 C47.3968935,13.9029915 47.389501,13.9498107 47.3796443,14.0040227 L47.2613642,14.5362833 L48.3258854,14.7580585 L48.4293805,14.2257979 C48.5082344,13.9103826 48.5082344,13.6146852 48.4293805,13.3386969 C48.3308133,13.0725652 48.1632514,12.8803619 47.9266899,12.7620812 C47.6999852,12.6733706 47.4486424,12.6314802 47.1726541,12.6364085 C46.8966657,12.6413369 46.6354663,12.6635142 46.3890481,12.7029411 L45.9454976,12.7472962 Z M55.4231162,15.9556449 L58.0844193,13.3830519 L57.3303834,12.599446 L55.4083312,14.4623582 L58.1139893,3.6692955 L58.0992043,3.6692955 L58.3949047,2.53084916 C58.493472,2.05772624 58.4688305,1.61418015 58.3209796,1.20019759 C58.1337018,0.796071764 57.8281478,0.495446084 57.4043085,0.298311533 C56.3594954,-0.184668117 55.4674749,-0.0811740299 54.7282204,0.608796898 C54.0382494,1.31848128 53.8854725,2.24007148 54.2698848,3.37359515 C54.3027406,3.45902012 54.3421671,3.55320564 54.3881648,3.65615303 L54.4620901,3.81714567 C54.5212304,3.94528313 54.5803699,4.07834696 54.6395103,4.21634114 C54.7972179,4.5613266 54.9105686,4.90630689 54.9795657,5.25129236 C55.038706,5.54699418 55.0399131,5.79562201 54.9831866,5.99718115 L54.9499956,6.09403835 C54.900712,6.2911729 54.6937238,6.46859133 54.3290249,6.62629898 L53.8263343,6.83328922 L54.2255298,7.8386704 L54.7282204,7.64646518 C55.3491942,7.39019026 55.7582423,7.00578365 55.9553768,6.49323382 C56.1327979,5.99054071 56.1623676,5.50756831 56.0440869,5.04430211 C55.8920117,4.44444984 55.7182137,3.93512488 55.5226891,3.51631636 L55.4231162,3.31445508 C55.3541191,3.17646089 55.3048362,3.06803852 55.275266,2.9891847 C55.0485613,2.2400734 55.1175573,1.70288981 55.4822563,1.3776178 C55.817385,1.03263234 56.2905008,0.99320602 56.9016179,1.25933766 C57.0396121,1.33819148 57.1406421,1.40718754 57.2047108,1.46632791 C57.2687795,1.52546827 57.31067,1.57967946 57.3303834,1.6289631 C57.3726265,1.69655209 57.3822821,1.84741825 57.3593501,2.08156521 L57.3303834,2.32385892 L54.2994549,14.4327882 L54.2994549,14.6841335 L54.5212301,15.6895146 L55.4231162,15.9556449 Z M63.0302188,15.9556449 L65.691522,13.3830519 L64.9374861,12.614231 L63.0154338,14.4771432 L66.563838,0.268741498 L65.5141018,0.00261118514 L63.6511896,7.48382998 C63.3554877,7.06984743 63.0351489,6.76429346 62.6901634,6.56715891 C62.2564674,6.33059744 61.8178496,6.28624284 61.3742969,6.43409375 C60.6464155,6.74344335 60.0613187,7.3089431 59.618992,8.13060799 L59.5113847,8.34136099 C59.0284051,9.25803665 58.6563192,10.2609436 58.3951159,11.350112 C58.1339126,12.4392804 58.0230261,13.3633348 58.062453,14.1223028 C58.2103039,15.2558265 58.8115553,15.8669344 59.8662251,15.9556449 C60.5857662,15.9950719 61.3003683,15.7289442 62.0100526,15.157254 L62.1283328,15.6895146 L63.0302188,15.9556449 Z M61.8178474,13.8413875 C61.1370761,14.5497576 60.5421761,14.8974985 60.033132,14.8846184 L59.9253652,14.8763387 C59.462099,14.866482 59.2008996,14.595426 59.1417593,14.0631627 C59.1023324,13.4126187 59.2033623,12.5920584 59.4448521,11.6014573 C59.686342,10.6108562 60.0239298,9.69665844 60.4576258,8.8588366 C60.920892,8.03087149 61.3397967,7.56268395 61.7143523,7.45425995 C61.8523465,7.40497631 62.0051235,7.42468947 62.1726878,7.51340002 C62.3698224,7.60211057 62.6063803,7.85838164 62.8823687,8.28222092 L63.2963492,8.91797667 L62.1579028,13.427407 L61.8178474,13.8413875 Z M66.2313863,13.7083223 L66.2905264,13.8857425 C66.5468013,14.5165731 66.9706342,15.0241869 67.5620379,15.4085993 C68.1534415,15.7930117 68.9321113,15.985215 69.8980706,15.985215 L70.2676961,15.8373648 L72.766364,13.412622 L72.0123281,12.6438011 L69.6762954,14.9059087 L69.5432302,14.8911237 C68.8138324,14.8418401 68.2569356,14.6422443 67.8725233,14.2923305 C67.4881109,13.9424167 67.2416964,13.5013347 67.1332724,12.9690714 L67.1184874,12.8507913 L67.5176828,12.5403059 C67.7345308,12.3760271 67.9557574,12.21175 68.1813654,12.0474723 L68.523064,11.8010551 C69.3608859,11.2096514 70.1050576,10.6281132 70.7556016,10.056423 C71.0020198,9.82971828 71.2237929,9.58823207 71.4209274,9.33195716 C71.618062,9.07568224 71.7609824,8.8046263 71.8496929,8.5187812 C72.027114,7.85838046 71.805341,7.29162712 71.1843671,6.8185042 C70.9083788,6.62136965 70.6718209,6.4981624 70.4746863,6.44887877 C70.2775518,6.39959513 70.0804192,6.37495368 69.8832856,6.37495368 C69.8635722,6.37495368 69.843859,6.37002539 69.8241456,6.36016866 C69.0257506,6.35031193 68.33579,6.63861689 67.7542431,7.22509218 C67.1726962,7.81156747 66.726686,8.54588266 66.416199,9.42805977 C66.1057121,10.3102369 65.950471,11.1899366 65.950471,12.0671854 L65.965256,12.4515958 L65.0337999,13.3534819 L65.7730508,14.1223028 L66.2313863,13.7083223 Z M70.0163508,9.25803207 C69.5094334,9.70580912 68.9228652,10.1716843 68.2566331,10.6556681 L67.9168783,10.899169 C67.7296005,11.0371632 67.5373972,11.1751553 67.3402626,11.3131495 L67.0445623,11.5349247 L67.0889173,11.1505143 C67.1874846,10.4999703 67.364903,9.89132648 67.621178,9.32456465 C67.8774529,8.75780282 68.1903993,8.29947186 68.5600266,7.94955803 C68.8885841,7.63852352 69.2424481,7.47351655 69.6216268,7.45453366 L69.8389306,7.45425995 C69.9966382,7.45425995 70.1173813,7.46658067 70.2011635,7.49122249 C70.2681892,7.51093595 70.3525618,7.55745906 70.4542828,7.63079286 L70.5338264,7.69082023 C70.6816773,7.79924423 70.7703865,7.89781003 70.7999567,7.98652058 C70.8221342,8.05305349 70.8276786,8.11404132 70.8165898,8.16948508 L70.7999567,8.22308085 C70.7408163,8.47935577 70.479617,8.82433606 70.0163508,9.25803207 Z M74.5185998,15.9556449 C75.2479976,15.9950719 75.9675279,15.7289442 76.6772123,15.157254 L76.7954925,15.6895146 L77.6973785,15.9556449 L80.3586817,13.3830519 L79.6046458,12.614231 L77.6825935,14.4771432 L79.4124405,7.55775507 L79.4715806,7.29162476 L79.6490008,6.61151396 L78.5992646,6.34538365 L78.4366294,7.02549444 L78.3627043,7.30640978 L78.3183493,7.48382998 C78.0226474,7.06984743 77.7023086,6.76429346 77.3573231,6.56715891 C76.9137704,6.33059744 76.4751526,6.28624284 76.0414566,6.43409375 C75.3135752,6.74344335 74.7284784,7.3089431 74.2861517,8.13060799 L74.1785444,8.34136099 C73.6955647,9.25803665 73.3210147,10.2609436 73.0548831,11.350112 C72.7887514,12.4392804 72.6754008,13.3633348 72.7148277,14.1223028 C72.8626786,15.2558265 73.4639299,15.8669344 74.5185998,15.9556449 Z M76.4850071,13.8413875 C75.8042358,14.5497576 75.2050427,14.8974985 74.6874123,14.8846184 L74.5777399,14.8763387 C74.1243304,14.866482 73.863131,14.595426 73.7941339,14.0631627 C73.7645638,13.4126187 73.870522,12.5920584 74.1120118,11.6014573 C74.3535016,10.6108562 74.6910895,9.69665844 75.1247855,8.8588366 C75.5880517,8.03087149 76.002028,7.56268395 76.366727,7.45425995 C76.5047211,7.40497631 76.6624264,7.42468947 76.8398475,7.51340002 C77.0271253,7.60211057 77.2636833,7.85838164 77.5495284,8.28222092 L77.9487238,8.91797667 L76.8250625,13.427407 L76.4850071,13.8413875 Z M83.7520544,15.985215 C84.2941744,15.985215 84.8067165,15.8201173 85.2896962,15.4899169 C85.7726758,15.1597165 86.1620107,14.6397819 86.4577125,13.9300976 L86.4872826,13.8413875 L88.1579895,13.6639673 L88.0397094,12.584661 L86.6499178,12.7472962 C86.4527832,11.958758 85.7431095,11.2589408 84.5208753,10.6478237 L84.2103899,10.4704035 L86.4778213,8.2597467 C86.8586822,7.8844055 87.1575356,7.58634054 87.3743836,7.36554984 L86.842123,6.67065403 C86.4577106,6.44394929 86.0437343,6.33059863 85.6001815,6.33059863 C84.7130761,6.33059863 83.8506253,6.67065063 83.0128035,7.35076483 C82.4115431,7.8436012 82.0616345,8.48427888 81.9630673,9.27281709 C81.9630673,9.83465056 82.1503423,10.2781966 82.5248979,10.6034687 L79.6122495,13.442192 L80.4549955,14.1223028 C81.450525,13.1760569 82.4361829,12.2199687 83.411999,11.2540094 L84.2251749,11.72713 C84.9644295,12.1312558 85.4079756,12.5107341 85.5558265,12.8655763 L81.6673669,13.2943418 L81.1646763,13.8118174 L81.1942464,13.9300976 C81.3322405,14.5609281 81.6402587,15.0611495 82.1183099,15.4307768 C82.5963612,15.8004041 83.1409373,15.985215 83.7520544,15.985215 Z M82.5119071,14.2847419 L85.2157711,13.9892376 L85.186201,14.0483777 C84.7976817,14.5724271 84.3677564,14.8562835 83.8964141,14.8999537 L83.7668394,14.9059087 C83.7471259,14.9059087 83.5968131,14.8985163 83.3158963,14.8837312 C83.083374,14.8714932 82.8457898,14.7123764 82.6031388,14.4063768 L82.5119071,14.2847419 L82.5119071,14.2847419 Z M83.3085038,9.84943277 C83.1310827,9.67201167 83.0423735,9.5143064 83.0423735,9.37631221 C83.1015139,8.91304602 83.3331435,8.51139039 83.7372693,8.17133329 C84.1413952,7.83127619 84.614511,7.60211071 85.156631,7.48382998 C85.3241954,7.44440307 85.4769724,7.42468991 85.6149666,7.42468991 L85.7776017,7.43947493 L83.3085038,9.84943277 Z" id="BuenasIdeas"></path>
                    </g>
                </g>
            </g>
        </g>
    </g>
</svg>