<?xml version="1.0" encoding="UTF-8"?>
<svg width="9px" height="16px" viewBox="0 0 9 16" version="1.1" xmlns="http://www.w3.org/2000/svg" xmlns:xlink="http://www.w3.org/1999/xlink">
    <!-- Generator: sketchtool 59.1 (101010) - https://sketch.com -->
    <title>20E8B5FB-F855-4F47-AD82-A5700DCC0AA2</title>
    <desc>Created with sketchtool.</desc>
    <g id="Mobile" stroke="none" stroke-width="1" fill="none" fill-rule="evenodd">
        <g id="m-Result" transform="translate(-293.000000, -12.000000)">
            <g id="Header">
                <g id="Filtro$">
                    <g id="Filterbyprice" transform="translate(244.000000, 8.000000)">
                        <g id="input">
                            <g id="Icon/currency" transform="translate(44.000000, 2.000000)">
                                <polygon id="Path" points="0 0 20 0 20 20 0 20"></polygon>
                                <path d="M9.83333333,9.08333333 C7.94166667,8.59166667 7.33333333,8.08333333 7.33333333,7.29166667 C7.33333333,6.38333333 8.175,5.75 9.58333333,5.75 C10.7666667,5.75 11.3583333,6.2 11.575,6.91666667 C11.675,7.25 11.95,7.5 12.3,7.5 L12.55,7.5 C13.1,7.5 13.4916667,6.95833333 13.3,6.44166667 C12.95,5.45833333 12.1333333,4.64166667 10.8333333,4.325 L10.8333333,3.75 C10.8333333,3.05833333 10.275,2.5 9.58333333,2.5 C8.89166667,2.5 8.33333333,3.05833333 8.33333333,3.75 L8.33333333,4.3 C6.71666667,4.65 5.41666667,5.7 5.41666667,7.30833333 C5.41666667,9.23333333 7.00833333,10.1916667 9.33333333,10.75 C11.4166667,11.25 11.8333333,11.9833333 11.8333333,12.7583333 C11.8333333,13.3333333 11.425,14.25 9.58333333,14.25 C8.20833333,14.25 7.5,13.7583333 7.225,13.0583333 C7.1,12.7333333 6.81666667,12.5 6.475,12.5 L6.24166667,12.5 C5.68333333,12.5 5.29166667,13.0666667 5.5,13.5833333 C5.975,14.7416667 7.08333333,15.425 8.33333333,15.6916667 L8.33333333,16.25 C8.33333333,16.9416667 8.89166667,17.5 9.58333333,17.5 C10.275,17.5 10.8333333,16.9416667 10.8333333,16.25 L10.8333333,15.7083333 C12.4583333,15.4 13.75,14.4583333 13.75,12.75 C13.75,10.3833333 11.725,9.575 9.83333333,9.08333333 Z" id="Path" fill="#16A69E"></path>
                            </g>
                        </g>
                    </g>
                </g>
            </g>
        </g>
    </g>
</svg>