<svg fill="#757575" xmlns="http://www.w3.org/2000/svg" xmlns:xlink="http://www.w3.org/1999/xlink" version="1.1" x="0px" y="0px" viewBox="0 0 32 32" enable-background="new 0 0 32 32" xml:space="preserve">
<path d="M5.5,9h2.551c0.232,1.14,1.242,2,2.449,2s2.217-0.86,2.449-2H26.5C26.775,9,27,8.776,27,8.5S26.775,8,26.5,8H12.949  c-0.232-1.14-1.242-2-2.449-2S8.283,6.86,8.051,8H5.5C5.224,8,5,8.224,5,8.5S5.224,9,5.5,9z M10.5,7C11.327,7,12,7.673,12,8.5  S11.327,10,10.5,10S9,9.327,9,8.5S9.673,7,10.5,7z"/><path d="M26.5,15h-1.551c-0.232-1.14-1.242-2-2.449-2s-2.217,0.86-2.449,2H5.5C5.224,15,5,15.224,5,15.5S5.224,16,5.5,16h14.551  c0.232,1.141,1.242,2,2.449,2s2.217-0.859,2.449-2H26.5c0.275,0,0.5-0.224,0.5-0.5S26.775,15,26.5,15z M22.5,17  c-0.827,0-1.5-0.673-1.5-1.5s0.673-1.5,1.5-1.5s1.5,0.673,1.5,1.5S23.327,17,22.5,17z"/><path d="M26.5,22h-8.051c-0.232-1.141-1.242-2-2.449-2s-2.217,0.859-2.449,2H5.5C5.224,22,5,22.225,5,22.5S5.224,23,5.5,23h8.051  c0.232,1.141,1.242,2,2.449,2s2.217-0.859,2.449-2H26.5c0.275,0,0.5-0.225,0.5-0.5S26.775,22,26.5,22z M16,24  c-0.827,0-1.5-0.673-1.5-1.5S15.173,21,16,21s1.5,0.673,1.5,1.5S16.827,24,16,24z"/></svg>
