<svg fill="#757575" xmlns="http://www.w3.org/2000/svg" viewBox="0 0 32 32"><path d="M5.5 9h2.551c.232 1.14 1.242 2 2.449 2s2.217-.86 2.449-2H26.5a.5.5 0 000-1H12.949c-.232-1.14-1.242-2-2.449-2s-2.217.86-2.449 2H5.5a.5.5 0 000 1zm5-2c.827 0 1.5.673 1.5 1.5s-.673 1.5-1.5 1.5S9 9.327 9 8.5 9.673 7 10.5 7zM26.5 15h-1.551c-.232-1.14-1.242-2-2.449-2s-2.217.86-2.449 2H5.5a.5.5 0 000 1h14.551c.232 1.141 1.242 2 2.449 2s2.217-.859 2.449-2H26.5a.5.5 0 000-1zm-4 2c-.827 0-1.5-.673-1.5-1.5s.673-1.5 1.5-1.5 1.5.673 1.5 1.5-.673 1.5-1.5 1.5zM26.5 22h-8.051c-.232-1.141-1.242-2-2.449-2s-2.217.859-2.449 2H5.5a.5.5 0 000 1h8.051c.232 1.141 1.242 2 2.449 2s2.217-.859 2.449-2H26.5c.275 0 .5-.225.5-.5s-.225-.5-.5-.5zM16 24c-.827 0-1.5-.673-1.5-1.5S15.173 21 16 21s1.5.673 1.5 1.5S16.827 24 16 24z"/></svg>