<?xml version="1.0" encoding="UTF-8"?>
<svg width="24px" height="24px" viewBox="0 0 24 24" version="1.1" xmlns="http://www.w3.org/2000/svg" xmlns:xlink="http://www.w3.org/1999/xlink">
    <!-- Generator: sketchtool 57.1 (101010) - https://sketch.com -->
    <title>1f837bd5-2021-43ba-a5cd-5d0c36c039cd@1.00x</title>
    <desc>Created with sketchtool.</desc>
    <g id="Symbols" stroke="none" stroke-width="1" fill="none" fill-rule="evenodd">
        <g id="Icon/heart-outlined" stroke="#949494" stroke-width="2">
            <path d="M18.1556658,6.65102484 C16.5200331,5.53665339 14.3528516,5.92194415 13.097064,7.39178655 L12.3367662,8.28168048 L11.5764685,7.39178655 C10.3174402,5.9181511 8.15105964,5.53129743 6.51896125,6.65027398 C5.61686171,7.26885652 5.04181103,8.32430668 5.00278256,9.43660414 C4.97349467,10.248297 5.17532505,11.0337598 5.6254056,11.8725224 C6.48896991,13.4818466 7.7479889,14.7780589 11.7973976,18.457251 L11.883954,18.5351644 C12.1356825,18.7637074 12.5251226,18.7626985 12.7807601,18.5272717 L12.8734107,18.4430451 C18.416636,13.4171875 19.7490221,11.7644948 19.6707218,9.42748395 C19.6317714,8.32388963 19.0563877,7.26919709 18.1556658,6.6510249 Z M18.1556658,6.6510249 C18.155301,6.65077452 18.1549361,6.65052422 18.1545712,6.65027398 L18.1567627,6.65177247 C18.1563971,6.65152318 18.1560315,6.65127397 18.1556658,6.65102484 Z M13.1096898,18.6835018 L12.3367662,19.4564254 L11.6296594,18.7493186 L11.5822342,18.7001559 C6.02890953,13.6718305 4.67009956,12.0840905 4.67009956,9.58387846 C4.67009956,7.36492704 6.36781481,5.66721179 8.58676623,5.66721179 C10.0308302,5.66721179 11.4264496,6.45024951 12.1722816,7.63387846 L12.5065099,7.63387846 C13.2471453,6.45037965 14.6422995,5.66721179 16.0867662,5.66721179 C18.3057176,5.66721179 20.0034329,7.36492704 20.0034329,9.58387846 C20.0034329,12.0813282 18.6476238,13.6683209 13.1096898,18.6835018 Z" id="Shape"></path>
        </g>
    </g>
</svg>