<?xml version="1.0" encoding="UTF-8"?>
<svg width="23px" height="21px" viewBox="0 0 23 21" version="1.1" xmlns="http://www.w3.org/2000/svg" xmlns:xlink="http://www.w3.org/1999/xlink">
    <!-- Generator: sketchtool 57.1 (101010) - https://sketch.com -->
    <title>D93C6842-C9FC-4021-827B-1605C8869F9B</title>
    <desc>Created with sketchtool.</desc>
    <g id="Desktop" stroke="none" stroke-width="1" fill="none" fill-rule="evenodd">
        <g id="Result-hover-product" transform="translate(-301.000000, -450.000000)" stroke="#949494" stroke-width="2">
            <g id="Content" transform="translate(120.000000, 56.000000)">
                <g id="Products" transform="translate(0.000000, 100.000000)">
                    <g id="Fila">
                        <g id="Material/Product/Card">
                            <g id="Icon/heart-outlined" transform="translate(176.000000, 288.000000)">
                                <path d="M24.3956982,8.59287315 C22.0688853,7.00724115 18.9904871,7.55441392 17.2093189,9.63919046 L16.4490212,10.5290844 L15.6887234,9.63919046 C13.9032995,7.54943278 10.8258209,6.99988302 8.50343879,8.59212234 C7.21303568,9.47697022 6.39298056,10.9821025 6.33726019,12.5701192 C6.29597519,13.7143034 6.57993154,14.8193756 7.20682253,15.9876393 C8.38418506,18.1817527 10.0721417,19.9195742 15.5068749,24.8574327 L15.621209,24.9603461 C16.0845109,25.3809755 16.798947,25.3791246 17.2652372,24.9496756 L17.3884433,24.8376712 C24.866335,18.0577158 26.6700517,15.8203843 26.560754,12.5582212 C26.5050973,10.9812789 25.6843895,9.47708006 24.3956982,8.5928732 Z M24.3956982,8.5928732 C24.3953333,8.59262286 24.3949685,8.59237258 24.3946035,8.59212234 L24.3967951,8.59362083 C24.3964295,8.59337155 24.3960638,8.59312233 24.3956982,8.59287315 Z M17.2497194,24.6697982 L16.4490208,25.4704953 L15.7419147,24.7633891 L15.6667117,24.6864487 C8.35867043,18.0692936 6.56013282,15.9677414 6.56013282,12.7785046 C6.56013282,10.0039976 8.67451469,7.88961569 11.4490216,7.88961569 C13.3228352,7.88961569 15.1357111,8.94443897 16.0416486,10.5118379 L16.8641467,10.5118379 C17.7623232,8.94481142 19.5744674,7.88961569 21.4490214,7.88961569 C24.2235283,7.88961569 26.3379102,10.0039976 26.3379102,12.7785046 C26.3379102,15.9650649 24.5423904,18.0657651 17.2497194,24.6697982 Z" id="Shape"></path>
                            </g>
                        </g>
                    </g>
                </g>
            </g>
        </g>
    </g>
</svg>
