<?xml version="1.0" encoding="UTF-8"?>
<svg width="20px" height="16px" viewBox="0 0 20 16" version="1.1" xmlns="http://www.w3.org/2000/svg" xmlns:xlink="http://www.w3.org/1999/xlink">
    <!-- Generator: sketchtool 59.1 (101010) - https://sketch.com -->
    <title>32146BA1-2D42-4A1F-BF49-83852C92D533</title>
    <desc>Created with sketchtool.</desc>
    <g id="Mobile" stroke="none" stroke-width="1" fill="none" fill-rule="evenodd">
        <g id="m-Result" transform="translate(-246.000000, -12.000000)">
            <g id="Header">
                <g id="Filtro$">
                    <g id="Filterbyprice" transform="translate(244.000000, 8.000000)">
                        <g id="input">
                            <g id="Icon/store">
                                <g id="24px">
                                    <polygon id="Path" points="0 0 24 0 24 24 0 24"></polygon>
                                    <path d="M5,6 L19,6 C19.55,6 20,5.55 20,5 C20,4.45 19.55,4 19,4 L5,4 C4.45,4 4,4.45 4,5 C4,5.55 4.45,6 5,6 Z M20.16,7.8 C20.07,7.34 19.66,7 19.18,7 L4.82,7 C4.34,7 3.93,7.34 3.84,7.8 L2.84,12.8 C2.72,13.42 3.19,14 3.82,14 L4,14 L4,19 C4,19.55 4.45,20 5,20 L13,20 C13.55,20 14,19.55 14,19 L14,14 L18,14 L18,19 C18,19.55 18.45,20 19,20 C19.55,20 20,19.55 20,19 L20,14 L20.18,14 C20.81,14 21.28,13.42 21.16,12.8 L20.16,7.8 Z M12,18 L6,18 L6,14 L12,14 L12,18 Z" id="Shape" fill="#16A69E"></path>
                                </g>
                            </g>
                        </g>
                    </g>
                </g>
            </g>
        </g>
    </g>
</svg>