<svg xmlns="http://www.w3.org/2000/svg" xmlns:xlink="http://www.w3.org/1999/xlink" version="1.1" width="24" height="24" enable-background="new 0 0 24 24" xml:space="preserve"><rect id="backgroundrect" width="100%" height="100%" x="0" y="0" fill="none" stroke="none"/>


<g class="currentLayer" style=""><title>Layer 1</title><g id="Bounding_Boxes">
	<path fill="none" d="M0,0h24v24H0V0z" id="svg_1"/>
	<path fill="none" d="M0,0h24v24H0V0z" id="svg_2"/>
</g><g id="Rounded" class="" fill="#efd50e" fill-opacity="1" stroke="#000000" stroke-opacity="1" opacity="1">
  <path d="M12,17.27l4.15,2.51c0.76,0.46,1.69-0.22,1.49-1.08l-1.1-4.72l3.67-3.18c0.67-0.58,0.31-1.68-0.57-1.75l-4.83-0.41     l-1.89-4.46c-0.34-0.81-1.5-0.81-1.84,0L9.19,8.63L4.36,9.04c-0.88,0.07-1.24,1.17-0.57,1.75l3.67,3.18l-1.1,4.72   c-0.2,0.86,0.73,1.54,1.49,1.08L12,17.27z" id="svg_3" fill="#efd50e" fill-opacity="1" stroke="#000000" stroke-opacity="1" opacity="1"/>
</g></g></svg>